<svg xmlns="http://www.w3.org/2000/svg" fill="none" viewBox="0 0 33.19 35.36">
<path fill-rule="evenodd" clip-rule="evenodd" d="M9.56179 11.1543C9.05183 10.5184 8.58959 9.84939 8.20593 9.1543H5.94491C2.66163 9.1543 0 11.8159 0 15.0992V24.567C0 27.8503 2.66162 30.5119 5.9449 30.5119H11.3711L14.0684 34.1455C15.2679 35.7614 17.6867 35.7614 18.8862 34.1455L21.5834 30.5119H27.2474C30.5307 30.5119 33.1923 27.8503 33.1923 24.567V15.0992C33.1923 11.8159 30.5307 9.1543 27.2474 9.1543H26.258C25.8744 9.84939 25.4121 10.5184 24.9022 11.1543H27.2474C29.4261 11.1543 31.1923 12.9205 31.1923 15.0992V24.567C31.1923 26.7457 29.4261 28.5119 27.2474 28.5119H20.5773L17.2802 32.9535C16.8804 33.4921 16.0742 33.4921 15.6743 32.9535L12.3773 28.5119H5.9449C3.76619 28.5119 2 26.7457 2 24.567V15.0992C2 12.9205 3.76619 11.1543 5.94491 11.1543H9.56179Z" fill="#241562"/>
<path d="M17.2326 13.6923C17.2326 13.6923 9.61719 9.65385 9.61719 4.89423C9.61719 3.86142 10.0338 2.8709 10.7753 2.14059C11.5169 1.41028 12.5226 1 13.5713 1C15.2255 1 16.6424 2.87675 17.2326 4.2967C17.8228 2.87675 19.2397 1 20.8938 1C21.9425 1 22.9483 1.41028 23.6898 2.14059C24.4314 2.8709 24.848 3.86142 24.848 4.89423C24.848 9.65385 17.2326 13.6923 17.2326 13.6923Z" stroke="#6952C7" stroke-width="2" stroke-linecap="round" stroke-linejoin="round"/>
<path d="M10.8906 18.1348H22.3137" stroke="#241562" stroke-width="2" stroke-linecap="round"/>
<path d="M10.8906 21.9424H22.3137" stroke="#241562" stroke-width="2" stroke-linecap="round"/>
</svg>