<svg width="39" height="42" viewBox="0 0 39 42" fill="none" xmlns="http://www.w3.org/2000/svg">
<path fill-rule="evenodd" clip-rule="evenodd" d="M11.9053 13.5917C11.3231 12.8657 10.7955 12.102 10.3576 11.3085H7.78479C4.03658 11.3085 0.998047 14.347 0.998047 18.0952V28.9037C0.998047 32.6519 4.03657 35.6904 7.78479 35.6904H13.9784L17.0577 39.8388C18.427 41.6834 21.1884 41.6834 22.5577 39.8388L25.637 35.6904H32.1039C35.8521 35.6904 38.8906 32.6519 38.8906 28.9037V18.0952C38.8906 14.347 35.8521 11.3085 32.1039 11.3085H30.9665C30.5286 12.102 30.0009 12.8657 29.4188 13.5917H32.1039C34.5911 13.5917 36.6074 15.608 36.6074 18.0952V28.9037C36.6074 31.3909 34.5911 33.4072 32.1039 33.4072H24.4884L20.7244 38.4779C20.2679 39.0928 19.3475 39.0928 18.8911 38.4779L15.1271 33.4072H7.78479C5.29756 33.4072 3.28126 31.3909 3.28126 28.9037V18.0952C3.28126 15.608 5.29756 13.5917 7.78479 13.5917H11.9053Z" fill="white"/>
<path d="M20.6625 16.4896C20.6625 16.4896 11.9688 11.8793 11.9688 6.44568C11.9688 5.26661 12.4443 4.13584 13.2909 3.30211C14.1374 2.46838 15.2856 2 16.4828 2C18.3712 2 19.9888 4.14251 20.6625 5.76354C21.3363 4.14251 22.9538 2 24.8422 2C26.0394 2 27.1876 2.46838 28.0342 3.30211C28.8807 4.13584 29.3563 5.26661 29.3563 6.44568C29.3563 11.8793 20.6625 16.4896 20.6625 16.4896Z" stroke="white" stroke-width="2.28321" stroke-linecap="round" stroke-linejoin="round"/>
<path d="M13.4297 21.5625H26.4704" stroke="white" stroke-width="2.28321" stroke-linecap="round"/>
<path d="M13.4297 25.9062H26.4704" stroke="white" stroke-width="2.28321" stroke-linecap="round"/>
</svg>
