<svg width="45" height="45" viewBox="0 0 45 45" fill="none" xmlns="http://www.w3.org/2000/svg">
<g id="Facebook svg" clip-path="url(#clip0_0_13483)">
<g id="g10">
<g id="g12">
<path id="path14" d="M44.5795 22.2837C44.5795 9.97559 34.6018 -0.00210571 22.2936 -0.00210571C9.98551 -0.00210571 0.0078125 9.97559 0.0078125 22.2837C0.0078125 33.4072 8.15742 42.6269 18.8115 44.2988V28.7257H13.153V22.2837H18.8115V17.3739C18.8115 11.7885 22.1386 8.7033 27.2292 8.7033C29.6674 8.7033 32.2178 9.13857 32.2178 9.13857V14.623H29.4076C26.6392 14.623 25.7758 16.3409 25.7758 18.1033V22.2837H31.9566L30.9686 28.7257H25.7758V44.2988C36.4299 42.6269 44.5795 33.4072 44.5795 22.2837Z" fill="#1877F2"/>
<path id="path16" d="M30.964 28.7265L31.9521 22.2845H25.7713V18.104C25.7713 16.3416 26.6346 14.6237 29.4031 14.6237H32.2133V9.13932C32.2133 9.13932 29.6629 8.70405 27.2246 8.70405C22.1341 8.70405 18.807 11.7892 18.807 17.3746V22.2845H13.1484V28.7265H18.807V44.2996C19.9416 44.4776 21.1045 44.5703 22.2891 44.5703C23.4737 44.5703 24.6367 44.4776 25.7713 44.2996V28.7265H30.964Z" fill="white"/>
</g>
</g>
</g>
<defs>
<clipPath id="clip0_0_13483">
<rect width="44.5717" height="44.5717" fill="white" transform="translate(0.0078125)"/>
</clipPath>
</defs>
</svg>
