<svg width="46" height="45" viewBox="0 0 46 45" fill="none" xmlns="http://www.w3.org/2000/svg">
<g id="Google svg">
<path id="Vector" d="M42.4801 22.7509C42.4801 21.3023 42.3501 19.9094 42.1086 18.5723H22.8685V26.4745H33.8629C33.3893 29.028 31.95 31.1916 29.7864 32.6402V37.7659H36.3886C40.2515 34.2095 42.4801 28.9723 42.4801 22.7509Z" fill="#4285F4"/>
<path id="Vector_2" d="M22.8665 42.7152C28.3823 42.7152 33.0066 40.8859 36.3866 37.7659L29.7844 32.6401C27.9551 33.8659 25.6151 34.5902 22.8665 34.5902C17.5458 34.5902 13.0422 30.9966 11.4358 26.168H4.61072V31.4609C7.97216 38.1373 14.8808 42.7152 22.8665 42.7152Z" fill="#34A853"/>
<path id="Vector_3" d="M11.4367 26.1691C11.0282 24.9433 10.796 23.6341 10.796 22.2876C10.796 20.9412 11.0282 19.6319 11.4367 18.4062V13.1133H4.61171C3.1817 15.96 2.43758 19.1019 2.43884 22.2876C2.43884 25.5841 3.22813 28.7041 4.61171 31.462L11.4367 26.1691Z" fill="#FBBC05"/>
<path id="Vector_4" d="M22.8665 9.98442C25.8658 9.98442 28.5587 11.0151 30.6759 13.0394L36.5352 7.18012C32.9973 3.88367 28.373 1.85938 22.8665 1.85938C14.8808 1.85938 7.97216 6.43726 4.61072 13.1137L11.4358 18.4066C13.0422 13.578 17.5458 9.98442 22.8665 9.98442Z" fill="#EA4335"/>
</g>
</svg>
