<svg width="41" height="41" viewBox="0 0 41 41" fill="none" xmlns="http://www.w3.org/2000/svg">
<g id="LinkedIn svg">
<g clip-path="url(#clip0_0_13494)">
<path id="Path 2520" d="M34.8118 34.3189H28.7844V24.9728C28.7844 22.7441 28.7442 19.8751 25.6495 19.8751C22.5103 19.8751 22.0299 22.3033 22.0299 24.8105V34.3183H16.0025V15.0988H21.7888V17.7253H21.8698C22.4489 16.745 23.2857 15.9385 24.291 15.3918C25.2964 14.8451 26.4327 14.5786 27.5789 14.6207C33.6879 14.6207 34.8143 18.5994 34.8143 23.7754L34.8118 34.3189ZM9.20162 12.4716C8.50983 12.4717 7.83352 12.2687 7.25824 11.8883C6.68297 11.5078 6.23459 10.967 5.96973 10.3342C5.70488 9.7014 5.63547 9.00505 5.77031 8.33321C5.90515 7.66137 6.23818 7.0442 6.72727 6.55976C7.21635 6.07532 7.83954 5.74536 8.51801 5.6116C9.19649 5.47785 9.89977 5.54631 10.539 5.80833C11.1781 6.07035 11.7245 6.51415 12.1089 7.08362C12.4934 7.65309 12.6987 8.32266 12.6988 9.00764C12.6989 9.46245 12.6085 9.91282 12.4328 10.333C12.257 10.7533 11.9995 11.1351 11.6748 11.4568C11.35 11.7784 10.9644 12.0336 10.5401 12.2077C10.1158 12.3818 9.66096 12.4715 9.20162 12.4716ZM12.2153 34.3189H6.18165V15.0988H12.2153V34.3189ZM37.8167 0.00274416H3.1529C2.36613 -0.0060471 1.60798 0.294802 1.04512 0.839181C0.482256 1.38356 0.160725 2.12693 0.151123 2.90594V37.3707C0.160397 38.1501 0.481739 38.894 1.04458 39.4389C1.60742 39.9839 2.36574 40.2853 3.1529 40.277H37.8167C38.6054 40.2868 39.3658 39.9863 39.9309 39.4413C40.496 38.8964 40.8195 38.1517 40.8304 37.3707V2.90346C40.8191 2.1229 40.4954 1.37868 39.9303 0.834317C39.3652 0.289951 38.605 -0.0100382 37.8167 0.000256468" fill="#0A66C2"/>
</g>
</g>
<defs>
<clipPath id="clip0_0_13494">
<rect x="0.151123" width="40.732" height="40.5717" fill="white"/>
</clipPath>
</defs>
</svg>
