<svg xmlns="http://www.w3.org/2000/svg" fill="none" viewBox="0 0.04 32 34.09">
<path fill-rule="evenodd" clip-rule="evenodd" d="M9.21427 10.7885C8.72266 10.1755 8.27706 9.53047 7.90723 8.86035H5.73136C2.56602 8.86035 0 11.4264 0 14.5917V23.7194C0 26.8847 2.56602 29.4507 5.73136 29.4507H10.9618L13.5623 32.954C14.7187 34.5118 17.0506 34.5118 18.207 32.954L20.8074 29.4507H26.2686C29.434 29.4507 32 26.8847 32 23.7194V14.5917C32 11.4264 29.434 8.86035 26.2686 8.86035H25.3113C24.9415 9.53047 24.4959 10.1755 24.0043 10.7885H26.2686C28.3691 10.7885 30.0718 12.4913 30.0718 14.5917V23.7194C30.0718 25.8198 28.3691 27.5226 26.2686 27.5226H19.8374L16.6587 31.8047C16.2733 32.324 15.496 32.324 15.1105 31.8047L11.9318 27.5226H5.73136C3.63091 27.5226 1.92816 25.8198 1.92816 23.7194V14.5917C1.92816 12.4913 3.63091 10.7885 5.73136 10.7885H9.21427Z" fill="#FFFFFF"/>
<path d="M16.6075 13.2364C16.6075 13.2364 9.26562 9.34299 9.26562 4.75435C9.26562 3.75863 9.66726 2.8037 10.3822 2.09962C11.0971 1.39555 12.0667 1 13.0777 1C14.6725 1 16.0385 2.80934 16.6075 4.17828C17.1764 2.80934 18.5425 1 20.1372 1C21.1482 1 22.1178 1.39555 22.8327 2.09962C23.5477 2.8037 23.9493 3.75863 23.9493 4.75435C23.9493 9.34299 16.6075 13.2364 16.6075 13.2364Z" stroke="#FFFFFF" stroke-width="1.92816" stroke-linecap="round" stroke-linejoin="round"/>
<path d="M10.5 17.5205H21.5127" stroke="#FFFFFF" stroke-width="1.92816" stroke-linecap="round"/>
<path d="M10.5 21.1885H21.5127" stroke="#FFFFFF" stroke-width="1.92816" stroke-linecap="round"/>
</svg>